<svg width="101" height="60" viewBox="0 0 101 60" fill="none" xmlns="http://www.w3.org/2000/svg">
<path d="M0.890506 40.9433C0.89132 40.0155 1.25996 39.126 1.91672 38.4701L17.6836 22.7041C18.0741 22.3136 18.7072 22.3136 19.0977 22.7041L22.6299 26.2362C23.0204 26.6267 23.0204 27.2599 22.6299 27.6504L14.5443 35.7359C13.9144 36.3659 14.3605 37.443 15.2514 37.4431L78.7234 37.4438C84.1418 37.4438 89.1491 34.5523 91.8583 29.86C94.5675 25.1677 94.5675 19.3863 91.8583 14.693C89.1491 10.0006 84.1418 7.10996 78.7234 7.10996H49.0564C48.5041 7.10996 48.0564 6.66225 48.0564 6.10996L48.0564 1.10948C48.0564 0.557191 48.5041 0.109476 49.0564 0.109476H78.7234C86.6435 0.109476 93.9613 4.33473 97.9205 11.1936C101.881 18.0515 101.881 26.5014 97.9205 33.3605C93.9613 40.2193 86.6435 44.4437 78.7234 44.4437L15.2515 44.4437C14.3606 44.4437 13.9144 45.5208 14.5444 46.1508L22.6299 54.2363C23.0204 54.6269 23.0204 55.26 22.63 55.6505L19.0977 59.1833C18.7072 59.5739 18.074 59.5739 17.6835 59.1834L1.91672 43.4174C1.25999 42.7615 0.891319 41.8718 0.890506 40.9433Z" fill="black"/>
</svg>
