<svg width="16" height="14" viewBox="0 0 16 14" fill="none" xmlns="http://www.w3.org/2000/svg">
<path fill-rule="evenodd" clip-rule="evenodd" d="M6.75331 13.2042C7.14198 12.8797 7.19515 12.3022 6.87065 11.9136L3.5404 7.91689L14.4166 7.91689C14.9226 7.91689 15.3333 7.50623 15.3333 7.00023C15.3333 6.49423 14.9226 6.08356 14.4166 6.08356L3.5404 6.08356L6.87065 2.08689C7.19515 1.69731 7.14198 1.11981 6.75331 0.796226C6.36465 0.471726 5.78623 0.523975 5.46265 0.913559L0.879313 6.41356C0.842647 6.45664 0.825229 6.50798 0.797729 6.55564C0.775729 6.59323 0.750063 6.62623 0.733562 6.66748C0.691396 6.77473 0.666646 6.88656 0.666646 7.00023C0.666646 7.11389 0.691396 7.22573 0.733562 7.33298C0.750063 7.37423 0.775729 7.40723 0.797729 7.44481C0.825229 7.49248 0.842647 7.54381 0.879313 7.58689L5.46265 13.0869C5.78623 13.4756 6.36465 13.5287 6.75331 13.2042Z" fill="#f72485"/>
</svg>
