<svg width="133" height="115" viewBox="0 0 133 115" fill="none" xmlns="http://www.w3.org/2000/svg">
<path d="M69.2926 100C96.6097 100 118.756 78.1043 118.756 51C118.756 23.8957 96.6097 2 69.2926 2C41.9756 2 19.8292 23.8957 19.8292 51C19.8292 78.1043 41.9756 100 69.2926 100Z" fill="#1E1147" fill-opacity="0.08"/>
<path d="M124.415 30.8405C126.624 30.8405 128.415 29.0699 128.415 26.8858C128.415 24.7016 126.624 22.9311 124.415 22.9311C122.206 22.9311 120.415 24.7016 120.415 26.8858C120.415 29.0699 122.206 30.8405 124.415 30.8405Z" fill="#1E1147" fill-opacity="0.16"/>
<path d="M130.268 15.311C131.777 15.311 133 14.1018 133 12.6102C133 11.1186 131.777 9.90939 130.268 9.90939C128.76 9.90939 127.537 11.1186 127.537 12.6102C127.537 14.1018 128.76 15.311 130.268 15.311Z" fill="#1E1147" fill-opacity="0.16"/>
<path d="M16.4146 33.6378C17.9232 33.6378 19.1463 32.4286 19.1463 30.937C19.1463 29.4454 17.9232 28.2362 16.4146 28.2362C14.9059 28.2362 13.6829 29.4454 13.6829 30.937C13.6829 32.4286 14.9059 33.6378 16.4146 33.6378Z" fill="#1E1147" fill-opacity="0.16"/>
<path d="M21.4878 92.38C24.2897 92.38 26.561 90.1343 26.561 87.3642C26.561 84.5941 24.2897 82.3485 21.4878 82.3485C18.686 82.3485 16.4147 84.5941 16.4147 87.3642C16.4147 90.1343 18.686 92.38 21.4878 92.38Z" fill="#1E1147" fill-opacity="0.16"/>
<g filter="url(#filter0_d)">
<path d="M115.146 31.4192H30.561C28.7073 31.4192 27.2439 29.9724 27.2439 28.1397V9.33066C27.2439 7.49798 28.7073 6.05113 30.561 6.05113H115.049C116.902 6.05113 118.366 7.49798 118.366 9.33066V28.1397C118.463 29.9724 116.902 31.4192 115.146 31.4192Z" fill="white"/>
</g>
<path d="M47.7317 18.6869C47.7317 20.809 46.7561 22.7381 45.2927 24.0885C44.0244 25.246 42.2683 25.9212 40.4146 25.9212C38.5609 25.9212 36.8049 25.246 35.5366 24.0885C33.9756 22.7381 33.0975 20.809 33.0975 18.6869C33.0975 14.7322 36.4146 11.4527 40.4146 11.4527C44.4146 11.4527 47.7317 14.7322 47.7317 18.6869Z" fill="#1E1147" fill-opacity="0.24"/>
<path d="M45.2926 24.0885C44.0243 25.246 42.2682 25.9212 40.4145 25.9212C38.5609 25.9212 36.8048 25.246 35.5365 24.0885C36.1219 23.8956 36.8048 23.6063 37.6828 23.2204C37.878 23.124 38.0731 22.9311 38.1706 22.7381C38.2682 22.6417 38.2682 22.4488 38.2682 22.3523V20.5196L38.1706 20.4232C37.9755 20.2303 37.878 19.9409 37.878 19.6515L37.6828 19.5551C37.195 19.6515 37.2926 19.1692 37.0975 18.2047C37.0975 17.8188 37.0975 17.7224 37.2926 17.6259L37.4877 17.433C36.6097 15.4074 36.9999 14.1535 37.9755 13.6712C37.6828 12.996 37.6828 12.8031 37.6828 12.8031C37.6828 12.8031 39.6341 13.0925 40.2194 12.996C41.0975 12.8031 42.3658 12.996 42.8536 14.1535C43.6341 14.4429 43.9267 14.9251 44.0243 15.5039C44.1219 16.372 43.6341 17.3366 43.5365 17.6259C43.6341 17.7224 43.7316 17.8188 43.6341 18.1082C43.5365 18.9763 43.5365 19.5551 43.0487 19.4586L42.6584 20.3267C42.6584 20.4232 42.6584 20.4232 42.6584 20.5196C42.6584 20.6161 42.6584 20.9055 42.6584 22.4488C42.6584 22.6417 42.756 22.8346 42.756 22.9311C42.8536 23.124 43.0487 23.2204 43.1463 23.3169C44.0243 23.6063 44.7072 23.8956 45.2926 24.0885Z" fill="white"/>
<path d="M43.5622 17.7224C43.5622 17.5216 43.4607 17.2204 43.3592 17.0196V16.9192C42.953 16.1161 42.1406 15.8149 41.3283 15.8149C39.2974 15.7145 39.0943 16.1161 38.3835 15.5137C38.5866 15.8149 38.5866 16.3169 38.282 16.9192C38.0789 17.3208 37.6727 17.5216 37.2666 17.622C36.3527 15.5137 36.7588 14.2086 37.7743 13.7066C37.4696 13.0039 37.4696 12.8031 37.4696 12.8031C37.4696 12.8031 39.5005 13.1043 40.1098 13.0039C41.0237 12.8031 42.3437 13.0039 42.8514 14.2086C43.6638 14.5098 43.9684 15.0118 44.07 15.6141C44.1715 16.3169 43.6638 17.3208 43.5622 17.7224Z" fill="#1E1147" fill-opacity="0.48"/>
<path d="M42.7559 22.9311V23.3169H38.1705V22.8346C38.2681 22.7381 38.2681 22.5452 38.2681 22.4488V20.6161L38.1705 20.5196V20.4232C38.2681 20.6161 38.3657 20.7126 38.5608 20.9055L40.0242 21.87C40.3169 22.1594 40.8047 22.1594 41.1949 21.87L42.5608 20.7126L42.6583 20.6161C42.6583 20.7126 42.6583 21.0019 42.6583 22.5452C42.5608 22.6417 42.6583 22.7381 42.7559 22.9311Z" fill="url(#paint0_linear)"/>
<path d="M71.7317 16.5649H53C52.5122 16.5649 52.2195 16.1791 52.2195 15.7933V13.3819C52.2195 12.8996 52.6097 12.6102 53 12.6102H71.7317C72.2195 12.6102 72.5122 12.996 72.5122 13.3819V15.7933C72.5122 16.2756 72.2195 16.5649 71.7317 16.5649Z" fill="#1E1147" fill-opacity="0.16"/>
<path d="M93.9756 24.7637H53C52.5122 24.7637 52.2195 24.3779 52.2195 23.9921V21.5807C52.2195 21.0984 52.6097 20.809 53 20.809H93.9756C94.4634 20.809 94.7561 21.1948 94.7561 21.5807V23.9921C94.7561 24.4744 94.3658 24.7637 93.9756 24.7637Z" fill="#1E1147" fill-opacity="0.16"/>
<g filter="url(#filter1_d)">
<path d="M115.146 94.6949H30.561C28.7073 94.6949 27.2439 93.2481 27.2439 91.4154V72.6063C27.2439 70.7737 28.7073 69.3268 30.561 69.3268H115.049C116.902 69.3268 118.366 70.7737 118.366 72.6063V91.4154C118.463 93.2481 116.902 94.6949 115.146 94.6949Z" fill="white"/>
</g>
<path d="M47.7317 81.9626C47.7317 84.0847 46.7561 86.0138 45.2927 87.3642C44.0244 88.5217 42.2683 89.1969 40.4146 89.1969C38.5609 89.1969 36.8049 88.5217 35.5366 87.3642C33.9756 86.0138 33.0975 84.0847 33.0975 81.9626C33.0975 78.0079 36.4146 74.7284 40.4146 74.7284C44.4146 74.7284 47.7317 78.0079 47.7317 81.9626Z" fill="#1E1147" fill-opacity="0.24"/>
<path d="M45.2926 87.3642C44.0243 88.5217 42.2682 89.1969 40.4145 89.1969C38.5609 89.1969 36.8048 88.5217 35.5365 87.3642C36.1219 87.1713 36.8048 86.8819 37.6828 86.4961C37.878 86.3997 38.0731 86.2067 38.1706 86.0138C38.2682 85.9174 38.2682 85.7245 38.2682 85.628V83.7953L38.1706 83.6989C37.9755 83.506 37.878 83.2166 37.878 82.9272L37.6828 82.8308C37.195 82.9272 37.2926 82.4449 37.0975 81.4804C37.0975 81.0945 37.0975 80.9981 37.2926 80.9016L37.4877 80.7087C36.6097 78.6831 36.9999 77.4292 37.9755 76.9469C37.6828 76.2717 37.6828 76.0788 37.6828 76.0788C37.6828 76.0788 39.6341 76.3682 40.2194 76.2717C41.0975 76.0788 42.3658 76.2717 42.8536 77.4292C43.6341 77.7186 43.9267 78.2008 44.0243 78.7796C44.1219 79.6477 43.6341 80.6123 43.5365 80.9016C43.6341 80.9981 43.7316 81.0945 43.6341 81.3839C43.5365 82.252 43.5365 82.8308 43.0487 82.7343L42.6584 83.506C42.6584 83.6024 42.6584 83.6024 42.6584 83.6989C42.6584 83.7953 42.6584 84.0847 42.6584 85.628C42.6584 85.8209 42.756 86.0138 42.756 86.1103C42.8536 86.3032 43.0487 86.3997 43.1463 86.4961C44.0243 86.9784 44.7072 87.1713 45.2926 87.3642Z" fill="white"/>
<path d="M43.5622 80.9981C43.5622 80.7973 43.4607 80.4961 43.3592 80.2953V80.1949C42.953 79.3918 42.1406 79.0906 41.3283 79.0906C39.2974 78.9902 39.0943 79.3918 38.3835 78.7894C38.5866 79.0906 38.5866 79.5926 38.282 80.1949C38.0789 80.5965 37.6727 80.7973 37.2666 80.8977C36.3527 78.7894 36.7588 77.4843 37.7743 76.9823C37.4696 76.2796 37.4696 76.0788 37.4696 76.0788C37.4696 76.0788 39.5005 76.3799 40.1098 76.2796C41.0237 76.0788 42.3437 76.2796 42.8514 77.4843C43.6638 77.7855 43.9684 78.2874 44.07 78.8898C44.1715 79.693 43.6638 80.5965 43.5622 80.9981Z" fill="#1E1147" fill-opacity="0.48"/>
<path d="M42.7559 86.2067V86.5926H38.1705V86.1103C38.2681 86.0138 38.2681 85.8209 38.2681 85.7245V83.8918L38.1705 83.7953V83.6989C38.2681 83.8918 38.3657 83.9882 38.5608 84.1812L40.0242 85.1457C40.3169 85.4351 40.8047 85.4351 41.1949 85.1457L42.5608 83.9882L42.6583 83.8918C42.6583 83.9882 42.6583 84.2776 42.6583 85.8209C42.5608 85.9174 42.6583 86.1103 42.7559 86.2067Z" fill="url(#paint1_linear)"/>
<path d="M71.7317 79.937H53C52.5122 79.937 52.2195 79.5512 52.2195 79.1654V76.754C52.2195 76.2717 52.6097 75.9823 53 75.9823H71.7317C72.2195 75.9823 72.5122 76.3681 72.5122 76.754V79.1654C72.5122 79.5512 72.2195 79.937 71.7317 79.937Z" fill="#1E1147" fill-opacity="0.16"/>
<path d="M93.9756 88.1359H53C52.5122 88.1359 52.2195 87.75 52.2195 87.3642V84.9528C52.2195 84.4705 52.6097 84.1811 53 84.1811H93.9756C94.4634 84.1811 94.7561 84.567 94.7561 84.9528V87.3642C94.7561 87.75 94.3658 88.1359 93.9756 88.1359Z" fill="#1E1147" fill-opacity="0.16"/>
<g filter="url(#filter2_d)">
<path d="M100.805 63.0571H16.3171C14.4634 63.0571 13 61.6103 13 59.7776V40.9685C13 39.1358 14.4634 37.689 16.3171 37.689H100.805C102.659 37.689 104.122 39.1358 104.122 40.9685V59.7776C104.219 61.6103 102.659 63.0571 100.805 63.0571Z" fill="white"/>
</g>
<path d="M57.4878 48.2028H38.7561C38.2683 48.2028 37.9756 47.8169 37.9756 47.4311V45.0197C37.9756 44.5374 38.3658 44.248 38.7561 44.248H57.4878C57.9756 44.248 58.2683 44.6339 58.2683 45.0197V47.4311C58.2683 47.9134 57.9756 48.2028 57.4878 48.2028Z" fill="#1E1147" fill-opacity="0.16"/>
<path d="M79.7317 56.498H38.7561C38.2683 56.498 37.9756 56.1122 37.9756 55.7264V53.315C37.9756 52.8327 38.3658 52.5433 38.7561 52.5433H79.6341C80.1219 52.5433 80.4146 52.9291 80.4146 53.315V55.7264C80.5122 56.1122 80.1219 56.498 79.7317 56.498Z" fill="#1E1147" fill-opacity="0.16"/>
<path d="M33.5853 50.3248C33.5853 52.3504 32.7073 54.1831 31.3414 55.5335C31.2439 55.6299 31.2439 55.6299 31.1463 55.7264C29.878 56.8839 28.1219 57.559 26.2683 57.559C24.4146 57.559 22.7561 56.8839 21.4878 55.8228C21.4878 55.8228 21.4878 55.8228 21.3902 55.8228C19.8292 54.4724 18.8536 52.5433 18.8536 50.3248C18.8536 46.3701 22.1707 43.0905 26.1707 43.0905C30.2683 43.0905 33.5853 46.3701 33.5853 50.3248Z" fill="#1E1147" fill-opacity="0.24"/>
<path d="M31.3129 55.6803C31.0161 54.9956 30.5214 54.4087 29.7299 54.0175C29.3342 53.8218 29.0373 53.724 28.5427 53.724H28.2459C27.5533 53.724 27.4544 53.6262 27.4544 53.6262V52.4524C28.2459 51.8655 28.8395 51.083 29.0373 50.2026C29.532 50.1048 29.8288 49.7135 29.7299 49.2245C29.7299 49.0288 29.532 48.8332 29.532 48.6376C29.532 48.5397 29.532 48.4419 29.532 48.3441C29.532 48.2463 29.532 48.2463 29.532 48.1485C29.532 48.0507 29.532 48.0507 29.532 47.9528C29.532 47.5616 29.4331 47.2681 29.1363 46.8769C28.5427 45.8009 27.3554 45.1162 26.0693 45.1162C25.7724 45.1162 25.5746 45.1162 25.2778 45.214C24.7831 45.3118 24.3873 45.5074 23.9916 45.8009C23.8927 45.8987 23.8927 45.8987 23.7937 45.9965C23.7937 45.9965 23.7937 45.9965 23.6948 46.0943C23.299 46.4856 23.0022 46.9747 22.8044 47.4638C22.6065 47.9528 22.6065 48.5397 22.6065 49.1266C22.6065 49.1266 22.6065 49.1266 22.6065 49.2245C22.6065 49.3223 22.6065 49.3223 22.6065 49.4201C22.6065 49.4201 22.6065 49.5179 22.5075 49.5179C22.7054 49.3223 22.6065 49.6157 22.7054 49.8114C22.9033 50.3004 23.2001 50.2026 23.5958 50.4961C23.5958 50.4961 23.5958 50.4961 23.4969 50.4961L23.1012 50.5939C20.9246 51.2786 20.7267 53.5284 22.9033 54.0175C22.7054 54.1153 22.6065 54.2131 22.5075 54.2131C21.9139 54.7022 21.5182 55.2891 21.3203 55.876C22.6065 56.952 24.2884 57.6367 26.1682 57.6367C28.048 57.6367 29.8288 56.952 31.115 55.7782C31.2139 55.876 31.3129 55.7782 31.3129 55.6803C31.4118 55.6803 31.4118 55.6803 31.3129 55.6803ZM25.1788 53.3328C25.0799 53.2349 24.981 53.1371 24.981 53.1371C24.882 53.0393 24.7831 53.0393 24.6841 52.9415C24.6841 52.9415 24.5852 52.9415 24.5852 52.8437C24.2884 52.648 23.9916 52.4524 23.8927 52.159C23.8927 52.0611 23.9916 51.8655 24.1895 51.6699C24.2884 51.7677 24.3873 51.8655 24.4863 52.0611C24.5852 52.159 24.6841 52.2568 24.7831 52.3546C24.882 52.3546 24.981 52.4524 24.981 52.5502C24.981 52.5502 24.981 52.5502 25.0799 52.5502C25.0799 52.5502 25.0799 52.5502 25.1788 52.5502V53.3328Z" fill="white"/>
<path d="M28.3658 53.6681C28.2683 54.0539 28.0732 54.3433 28.0732 54.3433L24.3658 53.7645L24.561 52.7999C24.561 52.7999 24.6585 52.8 24.6585 52.8964C24.7561 52.9929 24.8536 52.9929 24.9512 53.0893C25.0488 53.0893 25.0488 53.1858 25.1463 53.2822V52.607C25.1463 52.607 25.1463 52.607 25.0488 52.607C25.6341 52.8964 26.4146 53.0893 27.4878 52.4141V53.5716C27.5854 53.5716 27.6829 53.6681 28.3658 53.6681Z" fill="url(#paint2_linear)"/>
<path d="M27.5948 48.2882C28.2908 48.2882 28.9868 48.1899 29.5834 47.9933C29.5834 47.9933 29.5834 47.895 29.6828 47.7966C29.5834 47.5017 29.484 47.1085 29.2851 46.7153C28.6886 45.634 27.4954 44.9458 26.2028 44.9458C25.9045 44.9458 25.6184 44.9669 25.2194 45.0652C24.6885 45.2256 24.442 45.3666 24.3162 45.4419C24.3162 45.4419 24.0256 45.6352 23.8165 45.8306C23.6074 46.026 23.1205 46.7153 22.9216 47.2068C22.7228 47.7966 22.5624 48.298 22.6618 48.8878C22.7612 48.8878 22.9216 48.7797 23.0211 48.7797C23.8165 48.3865 24.4131 47.8949 24.7114 47.1085C25.5068 47.7966 26.5011 48.1899 27.5948 48.2882Z" fill="#1E1147" fill-opacity="0.48"/>
<path d="M24.2195 51.7717C24.317 51.8681 24.4146 51.9646 24.5122 52.061C24.4146 51.9646 24.317 51.8681 24.2195 51.7717Z" fill="#3973F4"/>
<path d="M25.5853 55.3406C25.2926 55.7264 24.8048 55.7264 24.317 55.7264C24.8048 55.2441 24.5122 53.7973 22.9512 53.9902C20.7073 53.6043 21 51.2894 23.1463 50.6142L23.5366 50.5177C23.5366 50.5177 23.5366 50.5177 23.6341 50.6142C23.8292 51.0965 24.0244 51.3858 24.317 51.7717C23.439 52.5433 24.7073 52.7362 25.2926 53.315C25.6829 53.5079 26.0731 54.7618 25.5853 55.3406Z" fill="#1E1147" fill-opacity="0.48"/>
<defs>
<filter id="filter0_d" x="14.7537" y="0.499951" width="116.107" height="50.3484" filterUnits="userSpaceOnUse" color-interpolation-filters="sRGB">
<feFlood flood-opacity="0" result="BackgroundImageFix"/>
<feColorMatrix in="SourceAlpha" type="matrix" values="0 0 0 0 0 0 0 0 0 0 0 0 0 0 0 0 0 0 127 0"/>
<feOffset dy="6.93898"/>
<feGaussianBlur stdDeviation="6.24508"/>
<feColorMatrix type="matrix" values="0 0 0 0 0.397708 0 0 0 0 0.47749 0 0 0 0 0.575 0 0 0 0.17 0"/>
<feBlend mode="normal" in2="BackgroundImageFix" result="effect1_dropShadow"/>
<feBlend mode="normal" in="SourceGraphic" in2="effect1_dropShadow" result="shape"/>
</filter>
<filter id="filter1_d" x="14.7537" y="63.7756" width="116.107" height="50.3484" filterUnits="userSpaceOnUse" color-interpolation-filters="sRGB">
<feFlood flood-opacity="0" result="BackgroundImageFix"/>
<feColorMatrix in="SourceAlpha" type="matrix" values="0 0 0 0 0 0 0 0 0 0 0 0 0 0 0 0 0 0 127 0"/>
<feOffset dy="6.93898"/>
<feGaussianBlur stdDeviation="6.24508"/>
<feColorMatrix type="matrix" values="0 0 0 0 0.397708 0 0 0 0 0.47749 0 0 0 0 0.575 0 0 0 0.17 0"/>
<feBlend mode="normal" in2="BackgroundImageFix" result="effect1_dropShadow"/>
<feBlend mode="normal" in="SourceGraphic" in2="effect1_dropShadow" result="shape"/>
</filter>
<filter id="filter2_d" x="0.509843" y="32.1378" width="116.107" height="50.3484" filterUnits="userSpaceOnUse" color-interpolation-filters="sRGB">
<feFlood flood-opacity="0" result="BackgroundImageFix"/>
<feColorMatrix in="SourceAlpha" type="matrix" values="0 0 0 0 0 0 0 0 0 0 0 0 0 0 0 0 0 0 127 0"/>
<feOffset dy="6.93898"/>
<feGaussianBlur stdDeviation="6.24508"/>
<feColorMatrix type="matrix" values="0 0 0 0 0.397708 0 0 0 0 0.47749 0 0 0 0 0.575 0 0 0 0.17 0"/>
<feBlend mode="normal" in2="BackgroundImageFix" result="effect1_dropShadow"/>
<feBlend mode="normal" in="SourceGraphic" in2="effect1_dropShadow" result="shape"/>
</filter>
<linearGradient id="paint0_linear" x1="40.4646" y1="23.3345" x2="40.4646" y2="21.7404" gradientUnits="userSpaceOnUse">
<stop stop-color="white"/>
<stop offset="1" stop-color="#E2E5EC"/>
</linearGradient>
<linearGradient id="paint1_linear" x1="40.4646" y1="86.6102" x2="40.4646" y2="85.0161" gradientUnits="userSpaceOnUse">
<stop stop-color="white"/>
<stop offset="1" stop-color="#E2E5EC"/>
</linearGradient>
<linearGradient id="paint2_linear" x1="26.3671" y1="54.355" x2="26.3671" y2="53.2922" gradientUnits="userSpaceOnUse">
<stop stop-color="white"/>
<stop offset="1" stop-color="#E2E5EC"/>
</linearGradient>
</defs>
</svg>
